<svg width="76" height="76" viewBox="0 0 76 76" fill="none" xmlns="http://www.w3.org/2000/svg">
<g clip-path="url(#clip0)">
<path d="M75.7588 32.085C75.1558 30.2284 73.4279 29.4207 71.8473 28.9881C72.8718 27.7096 73.7955 26.0408 73.1919 24.1836C72.6208 22.425 70.9636 20.9139 68.526 19.9282C66.133 18.9604 63.166 18.5702 59.945 18.7993C56.8539 19.019 54.0266 19.9549 51.7867 20.9667C52.0761 18.6531 52.1445 15.6954 51.3687 12.5678C50.5911 9.43378 49.3027 6.73233 47.6432 4.75568C45.9524 2.74191 44.003 1.63269 42.1539 1.63269C40.2011 1.63269 38.8993 3.02661 38 4.3956C37.1007 3.02661 35.799 1.63269 33.8461 1.63269C31.997 1.63269 30.0476 2.74191 28.3574 4.75568C26.6973 6.73233 25.4095 9.43378 24.6319 12.5678C23.8915 15.5528 23.8851 18.4774 24.1553 20.9394C21.9253 19.9386 19.12 19.0167 16.0556 18.7993C12.8352 18.5702 9.86763 18.9604 7.47407 19.9282C5.03645 20.9139 3.37986 22.425 2.80815 24.1836C2.20454 26.0408 3.12821 27.7096 4.15278 28.9881C2.57215 29.4207 0.844247 30.2284 0.24122 32.085C-0.330496 33.8436 0.121774 36.04 1.51454 38.2701C2.88178 40.4595 5.05326 42.5197 7.79298 44.2273C10.3988 45.8514 13.1721 46.7606 15.5952 47.265C13.9323 49.0962 12.2229 51.4619 11.0696 54.3089C9.85603 57.3008 9.31041 60.2435 9.49131 62.8191C9.67512 65.4417 10.6005 67.4844 12.0965 68.5716C13.6766 69.7191 15.5488 69.3567 17.0813 68.7775C17.0036 70.4143 17.2379 72.3069 18.8179 73.4556C20.3139 74.5416 22.5428 74.7903 25.0935 74.1548C27.5984 73.5309 30.2285 72.1028 32.6992 70.0247C35.1101 67.997 36.7818 65.4991 37.9235 63.4041C39.1556 65.5866 40.9015 68.0074 43.3003 70.0247C45.771 72.1034 48.4011 73.5315 50.906 74.1554C51.8314 74.3856 52.7145 74.4998 53.5355 74.4998C54.9776 74.4998 56.2288 74.1473 57.1815 73.455C58.761 72.3075 58.9952 70.4149 58.9187 68.778C60.4512 69.3573 62.3241 69.7197 63.9041 68.5716C65.3995 67.4844 66.3249 65.4417 66.5087 62.8191C66.6896 60.244 66.1434 57.3014 64.9304 54.3094C63.7667 51.4375 62.0028 49.0376 60.3491 47.2204C62.6377 46.7809 65.4726 45.9314 68.2071 44.2273C70.9468 42.5197 73.1183 40.4595 74.4855 38.2701C75.8783 36.04 76.3305 33.8436 75.7588 32.085V32.085Z" fill="#FFCDD4"/>
<path d="M75.7587 32.085C75.1557 30.2284 73.4278 29.4207 71.8472 28.9881C72.8717 27.7096 73.7954 26.0408 73.1918 24.1836C72.6207 22.425 70.9635 20.9139 68.5259 19.9282C66.1329 18.9604 63.1659 18.5702 59.9449 18.7993C56.8538 19.019 54.0266 19.9549 51.7867 20.9667C52.076 18.6531 52.1444 15.6954 51.3686 12.5678C50.591 9.43378 49.3026 6.73233 47.6432 4.75568C45.9524 2.74191 44.003 1.63269 42.1539 1.63269C40.201 1.63269 38.8993 3.02661 37.9999 4.3956V63.5369C39.2274 65.6841 40.9496 68.048 43.3002 70.0247C45.7709 72.1034 48.401 73.5315 50.9059 74.1554C51.8313 74.3856 52.7144 74.4998 53.5354 74.4998C54.9775 74.4998 56.2288 74.1473 57.1814 73.455C58.7609 72.3075 58.9952 70.4149 58.9186 68.778C60.4511 69.3573 62.324 69.7197 63.904 68.5716C65.3994 67.4844 66.3248 65.4417 66.5086 62.8191C66.6896 60.244 66.1434 57.3014 64.9303 54.3094C63.7666 51.4375 62.0028 49.0376 60.3491 47.2204C62.6377 46.7809 65.4725 45.9314 68.207 44.2273C70.9467 42.5197 73.1182 40.4595 74.4854 38.2701C75.8782 36.04 76.3305 33.8436 75.7587 32.085Z" fill="#FFA9B5"/>
<path d="M43.0323 43.7617C43.2608 43.8359 43.4927 43.8713 43.7206 43.8713C44.6594 43.8713 45.532 43.2729 45.8376 42.3324C46.218 41.1628 45.5778 39.9064 44.4083 39.5266L41.6025 38.6151L43.3368 36.2285C44.0592 35.2335 43.8389 33.8413 42.8445 33.1182C41.8489 32.3952 40.4567 32.6161 39.7342 33.6105L38.0005 35.9977L36.2663 33.6105C35.5438 32.6161 34.151 32.3952 33.1566 33.1182C32.1616 33.8407 31.9413 35.2329 32.6638 36.2279L34.398 38.6151L31.5922 39.5266C30.4227 39.9069 29.7826 41.1628 30.1624 42.3324C30.4685 43.2734 31.3412 43.8713 32.2799 43.8713C32.5078 43.8713 32.7397 43.8359 32.9682 43.7617L35.774 42.8502V45.7998C35.774 47.0296 36.7707 48.0263 38.0005 48.0263C39.2298 48.0263 40.2271 47.0296 40.2271 45.7998V42.8502L43.0323 43.7617Z" fill="#FF81AD"/>
<path d="M44.4083 39.5268L41.6025 38.6153L43.3368 36.2287C44.0593 35.2337 43.8389 33.8415 42.8445 33.1185C41.8489 32.3954 40.4568 32.6163 39.7343 33.6108L38.0006 35.9979L38 35.9974V48.0266C39.2298 48.0266 40.2266 47.0299 40.2266 45.8V42.8504L43.0324 43.7619C43.2608 43.8361 43.4928 43.8715 43.7206 43.8715C44.6594 43.8715 45.532 43.2731 45.8382 42.3326C46.218 41.1631 45.5779 39.9066 44.4083 39.5268V39.5268Z" fill="#FF5E95"/>
<path d="M45.7895 46.7464C45.067 45.7514 43.6748 45.5311 42.6798 46.2536C41.6848 46.9766 41.4645 48.3688 42.187 49.3638L44.8995 53.0974C45.3355 53.6969 46.0145 54.0152 46.7027 54.0152C47.1567 54.0152 47.6142 53.8767 48.0097 53.5896C49.0041 52.8672 49.225 51.4744 48.502 50.48L45.7895 46.7464Z" fill="#FF5E95"/>
<path d="M51.3901 33.1207L47.0014 34.5471C45.8319 34.9269 45.1917 36.1828 45.5721 37.3523C45.8777 38.2934 46.7503 38.8918 47.6891 38.8918C47.9169 38.8918 48.1489 38.8564 48.3773 38.7822L52.7661 37.3558C53.9356 36.976 54.5757 35.7201 54.196 34.5506C53.8156 33.381 52.5597 32.7409 51.3901 33.1207V33.1207Z" fill="#FF5E95"/>
<path d="M38 31.8516C39.2298 31.8516 40.2265 30.8549 40.2265 29.625V25.0101C40.2265 23.7803 39.2298 22.7836 38 22.7836C36.7701 22.7836 35.7734 23.7803 35.7734 25.0101V29.625C35.7734 30.8549 36.7701 31.8516 38 31.8516Z" fill="#FF81AD"/>
<path d="M40.2265 29.625V25.0101C40.2265 23.7803 39.2298 22.7836 37.9999 22.7836V31.8516C39.2298 31.8516 40.2265 30.8549 40.2265 29.625Z" fill="#FF5E95"/>
<path d="M28.3115 38.8918C29.2497 38.8918 30.1229 38.2934 30.4285 37.3523C30.8089 36.1828 30.1681 34.9269 28.9992 34.5471L24.6104 33.1207C23.4397 32.7409 22.1844 33.381 21.8046 34.5506C21.4248 35.7201 22.065 36.976 23.2339 37.3558L27.6227 38.7816C27.8517 38.8564 28.0836 38.8918 28.3115 38.8918Z" fill="#FF81AD"/>
<path d="M33.3207 46.2534C32.3257 45.5303 30.9336 45.7512 30.2105 46.7456L27.498 50.4792C26.7756 51.4742 26.9959 52.867 27.9909 53.5894C28.3858 53.8764 28.8438 54.015 29.2978 54.015C29.9861 54.015 30.6651 53.6967 31.1005 53.0971L33.813 49.3636C34.5361 48.3686 34.3151 46.9764 33.3207 46.2534Z" fill="#FF81AD"/>
</g>
<defs>
<clipPath id="clip0">
<rect width="76" height="76" fill="white"/>
</clipPath>
</defs>
</svg>
