<svg width="76" height="76" viewBox="0 0 76 76" fill="none" xmlns="http://www.w3.org/2000/svg">
<g clip-path="url(#clip0)">
<path d="M75.7588 32.085C75.1558 30.2284 73.4279 29.4207 71.8473 28.9881C72.8719 27.7096 73.7955 26.0408 73.1919 24.1836C72.6208 22.425 70.9636 20.9139 68.526 19.9282C66.133 18.9604 63.166 18.5702 59.945 18.7993C56.8539 19.019 54.0267 19.9549 51.7868 20.9667C52.0761 18.6531 52.1445 15.6954 51.3687 12.5678C50.5911 9.43378 49.3028 6.73233 47.6433 4.75568C45.9525 2.74191 44.0031 1.63269 42.154 1.63269C40.2011 1.63269 38.8994 3.02661 38 4.3956C37.1007 3.02661 35.799 1.63269 33.8461 1.63269C31.997 1.63269 30.0476 2.74191 28.3574 4.75568C26.6973 6.73233 25.4095 9.43378 24.632 12.5678C23.8915 15.5528 23.8851 18.4774 24.1553 20.9394C21.9253 19.9386 19.1201 19.0167 16.0556 18.7993C12.8352 18.5702 9.86766 18.9604 7.4741 19.9282C5.03648 20.9139 3.37989 22.425 2.80818 24.1836C2.20457 26.0408 3.12824 27.7096 4.15281 28.9881C2.57218 29.4207 0.844278 30.2284 0.24125 32.085C-0.330466 33.8436 0.121805 36.04 1.51457 38.2701C2.88181 40.4595 5.05329 42.5197 7.79301 44.2273C10.3988 45.8514 13.1721 46.7606 15.5953 47.265C13.9323 49.0962 12.2229 51.4619 11.0697 54.3089C9.85606 57.3008 9.31044 60.2435 9.49134 62.8191C9.67515 65.4417 10.6006 67.4844 12.0965 68.5716C13.6766 69.7191 15.5489 69.3567 17.0814 68.7775C17.0037 70.4143 17.2379 72.3069 18.818 73.4556C20.3139 74.5416 22.5428 74.7903 25.0935 74.1548C27.5984 73.5309 30.2285 72.1028 32.6992 70.0247C35.1102 67.997 36.7818 65.4991 37.9235 63.4041C39.1557 65.5866 40.9015 68.0074 43.3003 70.0247C45.771 72.1034 48.4011 73.5315 50.906 74.1554C51.8314 74.3856 52.7145 74.4998 53.5355 74.4998C54.9776 74.4998 56.2289 74.1473 57.1815 73.455C58.761 72.3075 58.9953 70.4149 58.9187 68.778C60.4512 69.3573 62.3241 69.7197 63.9041 68.5716C65.3995 67.4844 66.3249 65.4417 66.5088 62.8191C66.6897 60.244 66.1435 57.3014 64.9304 54.3094C63.7667 51.4375 62.0029 49.0376 60.3492 47.2204C62.6378 46.7809 65.4726 45.9314 68.2071 44.2273C70.9468 42.5197 73.1183 40.4595 74.4855 38.2701C75.8783 36.04 76.3306 33.8436 75.7588 32.085V32.085Z" fill="#FFCDD4"/>
<path d="M75.7588 32.085C75.1558 30.2284 73.4279 29.4207 71.8472 28.9881C72.8718 27.7096 73.7955 26.0408 73.1919 24.1836C72.6207 22.425 70.9636 20.9139 68.526 19.9282C66.133 18.9604 63.166 18.5702 59.945 18.7993C56.8539 19.019 54.0266 19.9549 51.7867 20.9667C52.0761 18.6531 52.1445 15.6954 51.3687 12.5678C50.5911 9.43378 49.3027 6.73233 47.6432 4.75568C45.9524 2.74191 44.003 1.63269 42.1539 1.63269C40.2011 1.63269 38.8993 3.02661 38 4.3956V63.5369C39.2275 65.6841 40.9496 68.048 43.3003 70.0247C45.7709 72.1034 48.4011 73.5315 50.906 74.1554C51.8314 74.3856 52.7145 74.4998 53.5355 74.4998C54.9775 74.4998 56.2288 74.1473 57.1815 73.455C58.761 72.3075 58.9952 70.4149 58.9187 68.778C60.4512 69.3573 62.324 69.7197 63.9041 68.5716C65.3995 67.4844 66.3249 65.4417 66.5087 62.8191C66.6896 60.244 66.1434 57.3014 64.9304 54.3094C63.7667 51.4375 62.0028 49.0376 60.3491 47.2204C62.6377 46.7809 65.4725 45.9314 68.207 44.2273C70.9468 42.5197 73.1182 40.4595 74.4855 38.2701C75.8783 36.04 76.3305 33.8436 75.7588 32.085Z" fill="#FFA9B5"/>
<path d="M43.0323 43.7617C43.2608 43.8359 43.4927 43.8713 43.7206 43.8713C44.6593 43.8713 45.532 43.2729 45.8375 42.3324C46.2179 41.1628 45.5778 39.9064 44.4083 39.5266L41.6024 38.6151L43.3367 36.2285C44.0592 35.2335 43.8389 33.8413 42.8444 33.1182C41.8489 32.3952 40.4567 32.6161 39.7342 33.6105L38.0005 35.9977L36.2662 33.6105C35.5438 32.6161 34.151 32.3952 33.1566 33.1182C32.1616 33.8407 31.9413 35.2329 32.6637 36.2279L34.398 38.6151L31.5922 39.5266C30.4227 39.9069 29.7825 41.1628 30.1623 42.3324C30.4685 43.2734 31.3411 43.8713 32.2799 43.8713C32.5078 43.8713 32.7397 43.8359 32.9681 43.7617L35.774 42.8502V45.7998C35.774 47.0296 36.7707 48.0263 38.0005 48.0263C39.2298 48.0263 40.2271 47.0296 40.2271 45.7998V42.8502L43.0323 43.7617Z" fill="#FF81AD"/>
<path d="M44.4083 39.5268L41.6025 38.6153L43.3368 36.2287C44.0593 35.2337 43.8389 33.8415 42.8445 33.1185C41.8489 32.3954 40.4568 32.6163 39.7343 33.6108L38.0006 35.9979L38 35.9974V48.0266C39.2298 48.0266 40.2266 47.0299 40.2266 45.8V42.8504L43.0324 43.7619C43.2608 43.8361 43.4928 43.8715 43.7206 43.8715C44.6594 43.8715 45.532 43.2731 45.8382 42.3326C46.218 41.1631 45.5779 39.9066 44.4083 39.5268V39.5268Z" fill="#FF5E95"/>
<path d="M45.7896 46.7464C45.0671 45.7514 43.6749 45.5311 42.6799 46.2536C41.6849 46.9766 41.4646 48.3688 42.187 49.3638L44.8995 53.0974C45.3355 53.6969 46.0145 54.0152 46.7028 54.0152C47.1568 54.0152 47.6143 53.8767 48.0097 53.5896C49.0042 52.8672 49.2251 51.4744 48.502 50.48L45.7896 46.7464Z" fill="#FF5E95"/>
<path d="M51.3901 33.1207L47.0013 34.5471C45.8318 34.9269 45.1917 36.1828 45.572 37.3523C45.8776 38.2934 46.7502 38.8918 47.689 38.8918C47.9169 38.8918 48.1488 38.8564 48.3773 38.7822L52.766 37.3558C53.9355 36.976 54.5757 35.7201 54.1959 34.5506C53.8155 33.381 52.5596 32.7409 51.3901 33.1207V33.1207Z" fill="#FF5E95"/>
<path d="M38 31.8516C39.2298 31.8516 40.2266 30.8549 40.2266 29.625V25.0101C40.2266 23.7803 39.2298 22.7836 38 22.7836C36.7702 22.7836 35.7734 23.7803 35.7734 25.0101V29.625C35.7734 30.8549 36.7702 31.8516 38 31.8516Z" fill="#FF81AD"/>
<path d="M40.2266 29.625V25.0101C40.2266 23.7803 39.2298 22.7836 38 22.7836V31.8516C39.2298 31.8516 40.2266 30.8549 40.2266 29.625Z" fill="#FF5E95"/>
<path d="M28.3116 38.8918C29.2497 38.8918 30.123 38.2934 30.4285 37.3523C30.8089 36.1828 30.1682 34.9269 28.9992 34.5471L24.6105 33.1207C23.4398 32.7409 22.1845 33.381 21.8047 34.5506C21.4249 35.7201 22.065 36.976 23.234 37.3558L27.6227 38.7816C27.8518 38.8564 28.0837 38.8918 28.3116 38.8918Z" fill="#FF81AD"/>
<path d="M33.3208 46.2534C32.3258 45.5303 30.9336 45.7512 30.2105 46.7456L27.4981 50.4792C26.7756 51.4742 26.9959 52.867 27.9909 53.5894C28.3858 53.8764 28.8439 54.015 29.2979 54.015C29.9861 54.015 30.6651 53.6967 31.1006 53.0971L33.8131 49.3636C34.5361 48.3686 34.3152 46.9764 33.3208 46.2534Z" fill="#FF81AD"/>
</g>
<defs>
<clipPath id="clip0">
<rect width="76" height="76" fill="white"/>
</clipPath>
</defs>
</svg>
