<svg width="512" height="490" viewBox="0 0 512 490" fill="none" xmlns="http://www.w3.org/2000/svg">
<g opacity="0.2">
<path d="M368.952 359.12C368.833 358.032 368.489 356.981 367.944 356.032L335.944 300.032L322.056 307.968L353.256 362.536L361.072 432.88L376.976 431.12L368.952 359.12Z" fill="#E68438"/>
<path d="M314.6 344.16L278.44 336.92L248.2 276.424L233.88 283.576L265.88 347.576C266.426 348.668 267.214 349.621 268.185 350.362C269.155 351.102 270.282 351.61 271.48 351.848L276.864 352.92L265.616 381.032C264.916 382.791 264.862 384.741 265.464 386.536L273.464 410.536L288.664 405.472L281.592 384.248L292.856 356.112L309.136 359.368L323.424 373.656L334.736 362.344L318.736 346.344C317.606 345.22 316.165 344.46 314.6 344.16Z" fill="#E68438"/>
<path d="M9 88L73 128L97 216L161 312L289 280L321 312L401 336L409 368L469.68 428.688C471.802 430.811 474.679 432.005 477.68 432.008C479.167 432.008 480.64 431.715 482.014 431.146C483.388 430.576 484.636 429.742 485.687 428.69C486.739 427.638 487.572 426.389 488.141 425.014C488.709 423.64 489.001 422.167 489 420.68C488.998 417.68 487.807 414.803 485.688 412.68L433 360L425 312L345 288L305 248L169 280L129 208L113 112L9 40V88Z" fill="#E68438"/>
<path d="M97 199.04L161 295.04L289 263.04L321 295.04L401 319.04L409 351.04L469.68 411.728C471.708 413.78 474.45 414.97 477.333 415.05C480.217 415.131 483.021 414.096 485.16 412.16L433 360L425 312L345 288L305 248L169 280L129 208L113 112L9 40V71.04L73 111.04L97 199.04Z" fill="#EEAB45"/>
<path d="M174.28 135.04C176.072 137.683 177.02 140.807 177 144C177 148.243 175.314 152.313 172.314 155.314C169.313 158.314 165.243 160 161 160C156.757 160 152.687 158.314 149.686 155.314C146.686 152.313 145 148.243 145 144C145 148.243 143.314 152.313 140.314 155.314C137.313 158.314 133.243 160 129 160C124.757 160 120.687 158.314 117.686 155.314C114.686 152.313 113 148.243 113 144C112.98 140.807 113.928 137.683 115.72 135.04C113.576 134.33 111.606 133.174 109.941 131.648C108.276 130.123 106.952 128.262 106.058 126.188C105.163 124.114 104.718 121.874 104.751 119.616C104.784 117.357 105.295 115.131 106.25 113.085C107.205 111.038 108.583 109.217 110.293 107.741C112.002 106.265 114.005 105.167 116.169 104.521C118.333 103.874 120.609 103.693 122.849 103.989C125.088 104.286 127.239 105.053 129.16 106.24C129.064 105.497 129.011 104.749 129 104C129 99.7565 130.686 95.6869 133.686 92.6863C136.687 89.6857 140.757 88 145 88C149.243 88 153.313 89.6857 156.314 92.6863C159.314 95.6869 161 99.7565 161 104C160.989 104.749 160.936 105.497 160.84 106.24C163.306 104.766 166.127 103.992 169 104C172.748 104.041 176.362 105.397 179.213 107.83C182.063 110.264 183.969 113.621 184.597 117.316C185.226 121.011 184.537 124.809 182.652 128.048C180.766 131.287 177.803 133.762 174.28 135.04Z" fill="#E06B92"/>
<path d="M145 143.04C153.837 143.04 161 135.877 161 127.04C161 118.203 153.837 111.04 145 111.04C136.163 111.04 129 118.203 129 127.04C129 135.877 136.163 143.04 145 143.04Z" fill="#EEBDCF"/>
<path d="M398.28 447.04C400.072 449.683 401.02 452.807 401 456C401 460.243 399.314 464.313 396.314 467.314C393.313 470.314 389.243 472 385 472C380.757 472 376.687 470.314 373.686 467.314C370.686 464.313 369 460.243 369 456C369 460.243 367.314 464.313 364.314 467.314C361.313 470.314 357.243 472 353 472C348.757 472 344.687 470.314 341.686 467.314C338.686 464.313 337 460.243 337 456C336.98 452.807 337.928 449.683 339.72 447.04C337.576 446.33 335.606 445.174 333.941 443.648C332.276 442.123 330.952 440.262 330.057 438.188C329.163 436.114 328.718 433.874 328.751 431.616C328.784 429.357 329.295 427.132 330.25 425.085C331.205 423.038 332.583 421.217 334.293 419.741C336.002 418.265 338.005 417.167 340.169 416.521C342.333 415.874 344.609 415.693 346.849 415.989C349.088 416.286 351.239 417.053 353.16 418.24C353.064 417.497 353.011 416.749 353 416C353 411.757 354.686 407.687 357.686 404.686C360.687 401.686 364.757 400 369 400C373.243 400 377.313 401.686 380.314 404.686C383.314 407.687 385 411.757 385 416C384.989 416.749 384.936 417.497 384.84 418.24C387.306 416.766 390.127 415.992 393 416C396.748 416.041 400.362 417.397 403.213 419.83C406.063 422.264 407.969 425.621 408.597 429.316C409.226 433.011 408.537 436.809 406.652 440.048C404.766 443.287 401.803 445.762 398.28 447.04Z" fill="#EEBDCF"/>
<path d="M369 455.04C377.837 455.04 385 447.877 385 439.04C385 430.203 377.837 423.04 369 423.04C360.163 423.04 353 430.203 353 439.04C353 447.877 360.163 455.04 369 455.04Z" fill="#E06B92"/>
<path d="M198.84 308.72C200.254 312.313 200.987 316.138 201 320C201.023 326.512 199.052 332.876 195.35 338.234C191.648 343.592 186.395 347.688 180.295 349.971C174.196 352.254 167.544 352.614 161.234 351.003C154.924 349.392 149.258 345.887 145 340.96C140.742 345.887 135.076 349.392 128.766 351.003C122.456 352.614 115.804 352.254 109.705 349.971C103.605 347.688 98.3516 343.592 94.6501 338.234C90.9485 332.876 88.9767 326.512 89.0001 320C89.0134 316.138 89.7459 312.313 91.1601 308.72C84.6224 305.596 79.3422 300.34 76.1876 293.817C73.033 287.293 72.1917 279.891 73.802 272.826C75.4123 265.762 79.3783 259.455 85.0481 254.943C90.718 250.431 97.7541 247.983 105 248C107.736 248.028 110.454 248.432 113.08 249.2C113.08 248.8 113 248.4 113 248C113 239.513 116.371 231.374 122.373 225.373C128.374 219.371 136.513 216 145 216C153.487 216 161.626 219.371 167.627 225.373C173.629 231.374 177 239.513 177 248C177 248.4 176.92 248.8 176.92 249.2C179.546 248.432 182.265 248.028 185 248C192.246 247.983 199.282 250.431 204.952 254.943C210.622 259.455 214.588 265.762 216.198 272.826C217.808 279.891 216.967 287.293 213.812 293.817C210.658 300.34 205.378 305.596 198.84 308.72Z" fill="#E06B92"/>
<path d="M145 319.04C162.673 319.04 177 304.713 177 287.04C177 269.367 162.673 255.04 145 255.04C127.327 255.04 113 269.367 113 287.04C113 304.713 127.327 319.04 145 319.04Z" fill="#EEBDCF"/>
<path d="M183.432 272.16L153 278.24L152.992 256H136.992L137 278.24L106.568 272.16L103.432 287.84L130.984 293.352L114.6 315.2L127.4 324.8L145 301.328L162.6 324.8L175.4 315.2L159.016 293.352L186.568 287.84L183.432 272.16Z" fill="#F4F5F4"/>
<path d="M470.84 284.72C472.254 288.313 472.987 292.138 473 296C473.023 302.512 471.051 308.876 467.35 314.234C463.648 319.592 458.395 323.688 452.295 325.971C446.196 328.254 439.544 328.614 433.234 327.003C426.924 325.392 421.258 321.887 417 316.96C412.741 321.887 407.076 325.392 400.766 327.003C394.456 328.614 387.804 328.254 381.705 325.971C375.605 323.688 370.352 319.592 366.65 314.234C362.948 308.876 360.977 302.512 361 296C361.013 292.138 361.746 288.313 363.16 284.72C356.622 281.596 351.342 276.34 348.187 269.817C345.033 263.293 344.192 255.891 345.802 248.826C347.412 241.762 351.378 235.455 357.048 230.943C362.718 226.431 369.754 223.983 377 224C379.735 224.028 382.454 224.432 385.08 225.2C385.08 224.8 385 224.4 385 224C385 215.513 388.371 207.374 394.373 201.373C400.374 195.371 408.513 192 417 192C425.487 192 433.626 195.371 439.627 201.373C445.629 207.374 449 215.513 449 224C449 224.4 448.92 224.8 448.92 225.2C451.546 224.432 454.264 224.028 457 224C464.246 223.983 471.282 226.431 476.952 230.943C482.622 235.455 486.588 241.762 488.198 248.826C489.808 255.891 488.967 263.293 485.812 269.817C482.658 276.34 477.378 281.596 470.84 284.72Z" fill="#E06B92"/>
<path d="M417 295.04C434.673 295.04 449 280.713 449 263.04C449 245.367 434.673 231.04 417 231.04C399.327 231.04 385 245.367 385 263.04C385 280.713 399.327 295.04 417 295.04Z" fill="#EEBDCF"/>
<path d="M455.432 248.16L425 254.24L424.992 232H408.992L409 254.24L378.568 248.16L375.432 263.84L402.984 269.352L386.6 291.2L399.4 300.8L417 277.328L434.6 300.8L447.4 291.2L431.016 269.352L458.568 263.84L455.432 248.16Z" fill="#F4F5F4"/>
</g>
</svg>
