<svg width="162" height="162" viewBox="0 0 162 162" fill="none" xmlns="http://www.w3.org/2000/svg">
<path d="M141.75 0H20.25C9.08212 0 0 9.08212 0 20.25V141.75C0 152.918 9.08212 162 20.25 162H141.75C152.918 162 162 152.918 162 141.75V20.25C162 9.08212 152.918 0 141.75 0Z" fill="white"/>
<path d="M136.688 81H111.375V60.75C111.375 55.161 115.911 55.6875 121.5 55.6875H131.625V30.375H111.375C94.5979 30.375 81 43.9729 81 60.75V81H60.75V106.312H81V162H111.375V106.312H126.562L136.688 81Z" fill="black"/>
</svg>
