<svg width="359" height="359" viewBox="0 0 359 359" fill="none" xmlns="http://www.w3.org/2000/svg">
<g clip-path="url(#clip0)" filter="url(#filter0_d)">
<path d="M340.518 7.95205C339.467 6.86065 338.071 6.29582 336.664 6.26934C335.258 6.24287 333.842 6.75475 332.75 7.80582L309.008 30.6706L308.997 30.6814L289.223 49.7246C289.217 49.73 289.217 49.73 289.212 49.7354L269.449 68.7678C269.438 68.7786 269.421 68.7947 269.41 68.8055L249.647 87.838L249.636 87.8487L245.684 91.6541L239.965 85.7158C238.914 84.6244 237.518 84.0596 236.112 84.0331C234.706 84.0066 233.289 84.5185 232.198 85.5696C230.009 87.6771 229.944 91.149 232.051 93.3374L235.862 97.2944L13.6418 311.303C13.6363 311.303 13.6308 311.303 13.6307 311.308C2.7387 321.819 2.41066 339.245 12.8995 350.153C13.9504 351.25 15.3467 351.809 16.7586 351.835C17.3134 351.846 17.8546 351.708 18.3961 351.548C18.5343 351.506 18.6933 351.526 18.8318 351.468C18.9036 351.447 18.9599 351.377 19.0374 351.345C19.6192 351.092 20.1857 350.773 20.6727 350.304L20.6783 350.299L258.727 121.042L262.538 124.999C264.645 127.188 268.117 127.253 270.305 125.145C272.494 123.038 272.559 119.566 270.452 117.378L264.733 111.439L280.555 96.2014L280.567 96.1906L300.346 77.142C300.352 77.1366 300.352 77.1366 300.357 77.1312L320.137 58.0881C320.142 58.0827 320.142 58.0827 320.148 58.0773L339.911 39.0449C339.922 39.0341 339.939 39.018 339.95 39.0072L351.804 27.591C353.993 25.4834 354.058 22.0115 351.95 19.8231L340.518 7.95205ZM336.415 19.5307L340.226 23.4877L333.946 29.5354L326.178 29.3892L336.415 19.5307ZM314.161 48.5894L306.393 48.4432L314.984 40.1694L322.752 40.3156L314.161 48.5894ZM294.375 67.6434L286.608 67.4971L295.199 59.2233L302.967 59.3696L294.375 67.6434ZM274.585 86.7027L266.817 86.5565L275.414 78.2773L283.182 78.4236L274.585 86.7027ZM253.3 99.5681L255.618 97.3366L263.385 97.4828L257.111 103.525L253.3 99.5681ZM17.7414 337.868C14.9615 331.694 16.1141 324.181 21.2634 319.217L21.269 319.211L243.484 105.214L251.105 113.128L17.7414 337.868Z" fill="#393939"/>
</g>
<defs>
<filter id="filter0_d" x="-0.78363" y="-0.000244141" width="360.203" height="360.203" filterUnits="userSpaceOnUse" color-interpolation-filters="sRGB">
<feFlood flood-opacity="0" result="BackgroundImageFix"/>
<feColorMatrix in="SourceAlpha" type="matrix" values="0 0 0 0 0 0 0 0 0 0 0 0 0 0 0 0 0 0 127 0"/>
<feOffset dy="1"/>
<feGaussianBlur stdDeviation="0.5"/>
<feColorMatrix type="matrix" values="0 0 0 0 1 0 0 0 0 1 0 0 0 0 1 0 0 0 0.25 0"/>
<feBlend mode="normal" in2="BackgroundImageFix" result="effect1_dropShadow"/>
<feBlend mode="normal" in="SourceGraphic" in2="effect1_dropShadow" result="shape"/>
</filter>
<clipPath id="clip0">
<rect width="351.647" height="351.647" fill="white" transform="translate(351.801 358.203) rotate(-178.922)"/>
</clipPath>
</defs>
</svg>
