<svg width="169" height="372" viewBox="0 0 169 372" fill="none" xmlns="http://www.w3.org/2000/svg">
<g filter="url(#filter0_d)">
<path d="M87.8754 268.77L78.9474 265.89C78.3714 268.386 76.9314 271.842 75.9714 273.474C71.8434 282.114 62.3394 296.034 45.8274 305.922L52.4514 310.914C62.9154 303.906 70.9794 295.362 76.8354 287.298H109.283C107.267 296.034 101.411 308.418 93.9234 317.25C85.1874 327.426 73.1874 336.162 55.6194 341.346L62.5314 347.586C80.5794 340.962 92.0034 332.13 100.739 321.474C109.283 311.106 115.235 298.146 117.827 288.45C118.307 286.914 119.267 284.706 120.035 283.362L113.603 279.426C112.067 280.098 109.955 280.386 107.363 280.386H81.3474C82.2114 279.042 82.9794 277.698 83.6514 276.354C84.5154 274.53 86.2434 271.266 87.8754 268.77Z" fill="white"/>
<path d="M46.1154 210.006V219.414C49.0914 219.126 54.1794 218.934 59.4594 218.934H112.163C116.483 218.934 120.515 219.318 122.435 219.414V210.006C120.323 210.198 116.867 210.486 112.067 210.486H59.4594C54.0834 210.486 48.9954 210.198 46.1154 210.006Z" fill="white"/>
<path d="M89.4114 82.8912H80.5794C80.9634 85.0032 81.0594 88.6512 81.0594 91.3392V97.4832H62.2434C59.0754 97.4832 53.6994 97.3872 50.6274 97.0032V105.067C53.6034 104.875 59.0754 104.683 62.4354 104.683H102.275C99.0114 109.195 91.3314 116.779 82.7874 122.251C74.0514 127.915 62.0514 134.251 43.9074 138.571L48.5154 145.675C61.4754 141.739 72.0354 137.515 80.9634 132.331C80.9634 138.859 80.8674 147.691 80.8674 153.259C80.8674 156.619 80.5794 161.035 80.2914 163.819H89.0274C88.8354 160.843 88.5474 156.619 88.5474 153.259C88.5474 146.827 88.6434 135.307 88.6434 127.435C97.4754 121.291 105.539 113.227 110.339 107.467C111.875 105.739 113.987 103.531 115.715 101.707L110.723 96.9072C109.091 97.3872 106.883 97.4832 104.675 97.4832H88.8354V91.3392C88.8354 88.6512 89.0274 85.0032 89.4114 82.8912ZM120.227 146.923L125.219 140.395C116.291 134.347 111.107 131.275 102.083 126.475L97.0914 132.139C106.115 136.939 111.875 140.779 120.227 146.923Z" fill="white"/>
<path d="M113.123 3.776L108.227 0.0319996C106.691 0.511999 104.195 0.799995 101.027 0.799995H63.9714C61.0914 0.799995 55.6194 0.415995 54.2754 0.223997V8.96C55.3314 8.86399 60.6114 8.48 63.9714 8.48H101.411C99.0114 16.448 92.0034 27.776 85.4754 35.168C75.5874 46.208 61.3794 57.632 45.9234 63.68L52.0674 70.112C66.2754 63.68 79.2354 53.12 89.5074 42.08C99.2994 50.816 109.475 62.144 115.907 70.592L122.627 64.832C116.387 57.248 104.675 44.768 94.5954 36.128C101.411 27.488 107.459 16.256 110.723 8C111.299 6.65599 112.547 4.544 113.123 3.776Z" fill="white"/>
<path d="M50.6561 2.19654C48.2942 2.52027 42.9511 3.81522 41.6733 4.36558C41.0926 4.62457 40.3569 4.81881 39.9697 4.81881C38.963 4.81881 33.9683 6.89073 32.5357 7.89432C31.8001 8.4123 30.2513 9.83674 29.051 11.0993C27.8507 12.3619 26.3794 13.8187 25.7987 14.3043C25.2179 14.8223 24.7145 15.3727 24.7145 15.5345C24.7145 15.6964 22.5076 16.7 19.836 17.7683C15.5769 19.4517 14.6089 19.9697 12.4407 21.8798C9.88525 24.0812 8.68497 25.6999 6.78775 29.5847C4.73566 33.761 4.15487 35.8652 4.07744 39.3292L4 42.599L5.43259 44.3472C6.24569 45.3184 7.48469 46.7105 8.25906 47.4227L9.61422 48.75L9.03344 50.8219C8.72369 51.955 8.45266 53.8974 8.45266 55.0953C8.45266 56.2931 8.18162 57.8147 7.87187 58.4621C7.0975 60.0161 7.13622 60.9225 8.02675 61.6024C9.07216 62.4117 10.466 62.1527 11.0855 61.052C11.5889 60.2103 11.6663 60.1779 12.2858 60.6312C13.0989 61.2463 14.2992 61.311 14.9574 60.7607C15.7318 60.1132 15.4995 58.9801 14.2217 57.0701C13.2925 55.7427 12.9827 54.8363 12.944 53.5413C12.9053 51.4047 13.7571 50.4982 16.2738 50.1421C20.5329 49.4946 23.2432 48.8147 26.6892 47.4227C29.6318 46.2572 30.6385 45.6745 31.4129 44.7033C31.9162 44.0234 33.0778 42.7932 33.9683 41.9515C35.0524 40.8832 35.7881 39.6853 36.4463 37.9048C37.8015 34.3113 37.9951 33.0164 37.4917 30.2322C36.8335 26.6387 37.5304 25.1495 40.8215 22.7862C42.3703 21.7179 43.9577 20.8762 44.9644 20.682C45.855 20.4877 47.2101 20.1963 47.9458 20.0021C48.6814 19.8402 50.5786 19.7107 52.1661 19.7107C55.1087 19.7107 58.0514 20.5201 61.0327 22.1711C62.9299 23.2071 66.8018 28.0955 70.7511 34.3761C72.3773 37.0307 73.2678 43.7321 72.2224 45.6421C71.9127 46.2572 71.5255 47.0666 71.3706 47.4874C71.2157 47.8759 69.7057 49.4299 68.0021 50.8867C66.2597 52.3435 62.504 55.6456 59.6001 58.2355C54.3344 62.9621 49.9979 66.2642 47.7909 67.203C43.5706 69.016 41.5959 71.6383 41.5572 75.426C41.5572 76.9799 41.3636 78.0806 41.0538 78.4044C40.4731 78.9547 28.6638 85.0734 26.9215 85.6885C26.302 85.9151 25.7212 86.3683 25.6051 86.7244C25.4115 87.3072 25.334 87.3072 24.5984 86.8863C24.1337 86.6273 23.0883 86.4007 22.314 86.4007C20.2232 86.4007 17.6677 88.4079 16.5836 90.8683C15.8092 92.6488 15.1123 93.9761 12.1309 98.9617C11.2017 100.483 10.3886 102.652 9.76909 105.048C8.91728 108.415 8.87856 109.127 9.18831 111.782C9.38191 113.4 9.73037 115.375 9.96269 116.185C10.1563 116.994 10.3499 120.231 10.3886 123.404C10.3886 127.969 10.5435 129.62 11.1242 131.497C11.5114 132.76 12.0535 134.929 12.2858 136.256C12.7117 138.976 13.1763 140.238 16.3126 147.587C19.7198 155.583 22.0429 160.148 24.6371 163.936C25.9535 165.846 27.0377 167.594 27.0377 167.756C27.0377 167.918 26.4569 169.083 25.7212 170.378C23.2045 174.813 22.1204 176.918 21.2298 178.99C20.7265 180.155 20.0296 181.385 19.6424 181.741C19.2939 182.098 18.597 183.781 18.1711 185.464C17.2418 188.734 17.1644 189.058 15.6156 193.072C11.2017 204.435 10.3886 207.673 10.3886 213.856C10.3886 219.619 10.8919 222.727 12.3632 225.64C12.9827 226.935 13.4861 228.165 13.4861 228.392C13.4861 228.975 16.8546 234.187 18.4034 236C19.1003 236.842 19.6811 237.78 19.6811 238.136C19.6811 238.493 18.7906 239.788 17.7064 241.018C13.6022 245.68 12.673 248.917 12.673 258.532C12.673 267.111 12.944 270.834 13.641 272.388C13.9507 273.1 14.2217 273.942 14.2605 274.298C14.2605 275.302 17.0095 283.266 17.9387 285.014C18.4034 285.888 19.4875 287.701 20.378 288.996C21.2686 290.291 22.0817 291.877 22.2365 292.557C22.585 294.143 25.2566 298.967 25.9922 299.291C26.302 299.452 27.0764 300.391 27.7346 301.362C28.3928 302.366 29.7092 303.92 30.5998 304.826C31.529 305.765 32.8842 307.19 33.6198 308.031C34.3555 308.873 35.6719 310.233 36.5237 311.042C39.1179 313.503 41.2087 316.157 41.9831 317.938C42.2541 318.585 42.8349 319.686 43.2608 320.366C43.6867 321.046 44.8483 323.344 45.855 325.481L47.6747 329.333L47.3263 335.031C46.6293 346.297 46.9004 347.657 50.5399 353.322C53.2502 357.466 54.9151 359.376 57.8578 361.642L60.2583 363.455L66.221 363.358C71.5255 363.261 74.2745 362.905 74.2745 362.387C74.2745 362.096 69.1249 359.409 68.0795 359.15C66.5308 358.761 64.3625 357.142 63.3171 355.653C62.5815 354.617 62.3104 353.808 62.3104 352.416C62.3104 349.794 61.8845 346.977 61.265 346.006C60.4519 344.679 59.2904 340.308 58.8257 336.812C58.5547 335.031 58.2837 333.121 58.1675 332.603C57.6255 329.884 57.3157 324.801 57.7029 324.445C58.2837 323.862 60.1422 323.927 60.723 324.51C61.265 325.028 66.7244 327.326 69.3572 328.103C70.1316 328.33 71.3706 328.751 72.0675 328.977C74.9715 330.046 83.9929 330.466 91.6979 329.851C93.9436 329.689 97.5832 329.398 99.8289 329.204C102.075 329.042 104.591 328.686 105.443 328.427C106.295 328.136 107.573 327.941 108.27 327.909C109.005 327.909 110.825 327.553 112.335 327.132C113.884 326.711 116.943 325.869 119.15 325.287C121.395 324.672 123.641 323.895 124.183 323.538C124.764 323.182 126.235 322.308 127.474 321.596C128.713 320.884 130.262 320.01 130.843 319.654C132.391 318.78 135.837 315.445 135.837 314.895C135.837 314.28 134.366 313.146 133.127 312.758C131.849 312.37 128.094 313.244 122.092 315.38C113.613 318.359 112.18 318.553 99.0545 318.747L87.6325 318.909L82.0183 317.873C75.9007 316.772 73.7712 316.06 69.396 313.794C66.4146 312.24 63.0074 310.977 57.9352 309.553C55.0313 308.711 54.9539 308.679 54.3344 307.222C53.1341 304.406 52.6695 303.79 49.7268 301.103C48.1006 299.647 46.7842 298.287 46.7842 298.125C46.7842 297.931 45.6614 296.345 44.2675 294.564C42.9123 292.816 41.1313 290.388 40.3569 289.222C39.5825 288.024 38.692 286.989 38.421 286.891C37.6466 286.632 34.5491 281.744 33.8909 279.672C32.497 275.528 32.3034 274.104 32.226 267.856C32.1485 262.514 32.2647 260.831 32.8842 258.143C34.0457 253.255 34.704 251.572 35.5558 251.345C36.3689 251.118 36.4463 251.151 41.9831 253.773C43.9577 254.679 46.397 255.618 47.4037 255.877C48.4491 256.136 50.7722 256.687 52.592 257.108C60.9165 259.082 71.3319 259.406 83.9542 258.014C90.9623 257.237 94.718 256.428 101.571 254.162C107.573 252.187 109.354 251.442 112.412 249.694C115.471 247.946 123.757 240.759 124.067 239.593C124.183 239.108 124.609 238.201 124.996 237.586C126.622 234.931 127.474 230.755 126.932 228.165C125.887 223.406 125.383 221.917 124.415 220.719C123.873 219.975 123.331 219.133 123.254 218.777C122.789 216.802 120.272 213.921 115.704 210.036C110.515 205.698 108.037 204.338 103.778 203.594C102.036 203.27 100.177 202.299 101.3 202.299C101.533 202.299 101.804 202.04 101.958 201.684C102.113 201.295 102.694 201.004 103.739 200.874C104.591 200.777 105.908 200.389 106.721 200.033C107.495 199.676 108.347 199.385 108.618 199.385C108.889 199.385 110.902 198.77 113.109 197.993L117.097 196.633L122.712 196.828C127.474 196.957 128.597 197.087 129.952 197.702C131.811 198.511 133.204 198.608 133.824 197.993C134.095 197.702 134.134 196.601 133.901 194.529C133.63 191.972 133.669 191.421 134.134 191.195C134.443 191.065 134.908 190.709 135.179 190.45C135.411 190.159 137.812 188.087 140.484 185.853C145.672 181.45 146.717 180.479 149.195 177.695C150.821 175.817 153.648 172.062 153.648 171.738C153.648 171.641 155.042 169.634 156.745 167.303C160.153 162.641 160.617 161.864 161.972 158.27C164.218 152.378 165.07 146.81 164.45 141.76C163.986 137.713 162.476 133.213 160.772 130.753C160.191 129.943 159.301 128.648 158.759 127.839C158.217 127.03 157.287 125.864 156.707 125.249C156.087 124.634 154.964 123.469 154.19 122.659C151.557 119.94 148.46 118.03 143.078 115.764C140.174 114.566 137.657 113.595 137.425 113.595C137.231 113.595 136.457 113.303 135.76 112.98C132.662 111.49 124.57 110.001 119.575 110.001C118.607 110.001 116.439 109.839 114.774 109.677C111.328 109.289 105.946 109.677 100.022 110.681C96.9637 111.167 95.4537 111.717 88.6004 114.76C76.7525 119.972 75.4748 120.749 64.4012 129.231C59.0581 133.31 53.5213 138.037 52.3597 139.429C51.8176 140.109 50.7335 141.436 49.8817 142.407C49.0686 143.379 48.3717 144.317 48.3717 144.479C48.333 144.641 47.7522 145.353 47.0552 146.098C46.3583 146.842 45.2742 148.073 44.6547 148.882C44.0352 149.691 43.1446 150.727 42.6413 151.245L41.7895 152.119L41.2861 151.407C41.0151 150.986 40.2407 149.691 39.5438 148.494C35.5945 141.63 34.975 139.332 34.975 131.174L35.0137 124.958L36.214 123.889C38.1886 122.141 39.4664 119.131 39.8923 115.116C40.2407 111.782 40.2407 111.555 39.3502 110.098C38.7694 109.095 38.0338 108.415 37.2207 108.091C35.0137 107.217 35.4396 106.246 39.4276 103.041C43.648 99.6739 48.7201 97.2135 55.1087 95.4653C61.6135 93.6848 67.0728 90.9978 70.9447 87.728C73.1517 85.8503 73.2678 85.6885 73.5001 83.7137C73.7325 82.095 74.1971 81.059 75.7458 78.6957C76.7912 77.077 77.9141 75.1994 78.1464 74.5195C79.0369 72.2534 79.3467 72.1239 85.8901 71.6383L88.4069 71.4764L89.2974 72.5771C89.8007 73.1922 90.5364 74.4871 90.9623 75.426C91.4269 76.3972 92.2013 77.9188 92.7046 78.8252C93.208 79.7317 93.6339 80.7677 93.6339 81.1561C93.6339 83.2281 95.6085 84.4259 98.1253 83.8432C102.849 82.7748 105.017 79.3756 104.088 74.6814C103.507 71.9296 101.726 66.7822 100.642 64.7103C99.8676 63.3182 98.8996 60.1456 97.7381 55.2895C95.8021 47.0666 94.7567 44.6709 91.8915 41.9515C90.8074 40.9156 90.0718 39.8472 89.9169 39.135C89.8007 38.5199 89.5297 37.5487 89.3361 37.0307C89.1038 36.4803 88.794 35.0235 88.6004 33.7933C87.4002 26.1531 85.3481 21.7179 79.9275 15.3403C76.0943 10.808 74.0035 8.8979 70.7898 7.08497C70.0542 6.66411 68.7765 5.8224 67.9634 5.23967C67.189 4.65694 66.1436 4.17133 65.6402 4.17133C65.1756 4.17133 64.4012 3.94472 63.8979 3.68573C61.7296 2.39078 54.799 1.61381 50.6561 2.19654ZM117.601 127.03C119.421 127.321 122.053 127.774 123.447 128.066C126.351 128.648 132.662 131.044 134.521 132.21C136.341 133.375 140.406 137.616 141.258 139.235C142.303 141.242 142.923 145.224 142.458 146.81C140.677 152.67 139.051 156.231 136.263 160.375C135.179 161.961 134.289 163.483 134.289 163.742C134.289 163.968 133.785 164.713 133.127 165.393C132.508 166.073 131.965 166.72 131.965 166.882C131.965 167.465 129.836 169.666 128.636 170.281C127.164 171.026 126.313 170.831 125.228 169.439C124.88 168.986 124.26 168.63 123.873 168.63C122.905 168.63 120.66 170.54 116.943 174.522C113.458 178.245 113.419 178.277 108.967 180.285C105.366 181.871 100.719 182.615 98.5512 181.968C97.7381 181.709 94.8729 181.58 90.8074 181.58C84.3414 181.58 80.4695 181.126 78.1851 180.123C77.2559 179.734 72.5322 176.27 70.4801 174.522C69.4734 173.68 68.9313 173.648 67.4987 174.263C66.918 174.522 66.221 174.652 65.9113 174.554C65.6402 174.49 64.982 174.943 64.4012 175.72L63.3558 177.015L61.0714 175.688C59.7937 174.975 57.4706 173.324 55.8831 171.997C53.56 170.087 52.9792 169.407 52.9792 168.63C52.9792 167.918 54.2956 166.04 57.9352 161.637C60.6455 158.335 63.201 155.163 63.5881 154.612C64.4012 153.511 67.2277 150.695 70.9834 147.231C72.2611 146.066 74.7779 143.67 76.5976 141.954C79.8887 138.781 86.1999 134.217 90.4202 131.983C93.5177 130.332 99.8676 128.325 103.972 127.71C112.684 126.382 113.148 126.382 117.601 127.03ZM45.855 186.371C46.7455 186.856 47.9845 187.504 48.5653 187.795C52.321 189.705 54.799 191.065 55.2249 191.518C55.4959 191.842 55.6895 193.04 55.6895 194.335C55.6895 195.597 55.8444 196.828 56.038 197.087C56.2703 197.378 57.2383 197.605 58.6709 197.669C66.3759 198.058 69.0088 198.446 72.1837 199.741C75.4748 201.069 77.1397 202.396 75.9781 202.752C75.6297 202.849 74.894 202.946 74.3132 202.946C73.7325 202.946 72.9194 203.173 72.4935 203.432C72.1063 203.691 71.2545 203.917 70.5962 203.917C69.9767 203.917 66.9954 204.662 64.014 205.568C61.0327 206.443 58.0901 207.317 57.4319 207.446C55.4572 207.899 50.7722 210.327 46.8229 212.917C39.1953 217.935 37.6466 219.101 35.3622 221.335C34.0845 222.597 32.9229 223.633 32.768 223.633C32.6131 223.665 32.1872 222.824 31.8001 221.788C30.7547 218.939 30.8708 208.191 31.9549 205.051C34.4329 198.025 39.1566 188.767 41.3636 186.63C42.8349 185.238 43.7254 185.173 45.855 186.371ZM92.4723 216.219C94.4857 216.381 97.4283 216.867 98.9771 217.288C101.339 217.935 102.152 218.356 103.585 219.651C106.217 222.014 107.147 223.406 107.65 225.899C108.231 228.683 107.805 230.011 105.753 232.115C103.817 234.09 97.5058 238.007 92.4336 240.403C83.6832 244.514 80.3534 245.226 70.2478 244.935C62.9299 244.741 59.2904 244.223 55.07 242.766C51.5853 241.568 47.6747 239.723 46.3196 238.654C45.3129 237.845 45.2742 237.78 45.8937 236.809C46.6681 235.547 53.1341 229.363 55.767 227.388C58.2837 225.511 64.5561 222.047 69.0475 220.072C73.5389 218.097 77.0623 217.223 83.3347 216.543C86.1225 216.219 88.4843 215.96 88.6004 215.96C88.7166 215.928 90.4589 216.058 92.4723 216.219Z" fill="#630C0C"/>
</g>
<defs>
<filter id="filter0_d" x="0" y="0.0319824" width="168.647" height="371.423" filterUnits="userSpaceOnUse" color-interpolation-filters="sRGB">
<feFlood flood-opacity="0" result="BackgroundImageFix"/>
<feColorMatrix in="SourceAlpha" type="matrix" values="0 0 0 0 0 0 0 0 0 0 0 0 0 0 0 0 0 0 127 0"/>
<feOffset dy="4"/>
<feGaussianBlur stdDeviation="2"/>
<feColorMatrix type="matrix" values="0 0 0 0 1 0 0 0 0 1 0 0 0 0 1 0 0 0 0.25 0"/>
<feBlend mode="normal" in2="BackgroundImageFix" result="effect1_dropShadow"/>
<feBlend mode="normal" in="SourceGraphic" in2="effect1_dropShadow" result="shape"/>
</filter>
</defs>
</svg>
