<svg width="398" height="510" viewBox="0 0 398 510" fill="none" xmlns="http://www.w3.org/2000/svg">
<g opacity="0.2" clip-path="url(#clip0)">
<path d="M78.5224 100.189C83.25 94.5818 90.5392 94.5421 95.3041 100.097C123.821 133.338 137.884 119.342 139.943 116.898C143.96 110.751 150.512 110.045 155.779 114.432C198.761 150.229 226.655 131.714 287.464 143.863C351.144 156.581 380.435 266.54 383.99 280.861C397.672 317.153 397.7 455.667 397.263 493.828C397.164 502.52 391.636 509.501 384.852 509.501H285.552C278.029 509.501 272.223 500.977 273.257 491.414C273.558 488.624 276.926 463.313 302.032 434.105C325.557 406.731 334.955 213.136 226.221 224.246C225.931 224.276 225.641 224.293 225.351 224.296C180.625 224.838 128.696 207.116 101.539 161.854L77.1485 121.624C73.1982 115.104 73.794 105.794 78.5224 100.189Z" fill="#C79A83"/>
<path d="M9.0386 186.533C-10.7873 144.257 3.45764 89.9634 37.5579 70.6909C41.713 31.1251 68.1912 0.524918 100.131 0.524918C101.315 0.524918 102.494 0.71976 103.639 1.10348C142.68 14.2146 199.782 23.737 233.382 16.5765C287.706 5.00728 355.33 0.721748 358.182 0.544799C373.837 -0.405553 390.856 13.6271 395.891 36.4365C402.88 68.0049 384.402 99.3486 358.851 99.3486C302.791 99.3486 252.77 124.436 225.046 166.462C222.25 170.698 218.077 173.01 213.754 172.731C188.437 171.054 169.286 164.407 149.92 150.229C145.06 153.497 139.693 155.58 133.837 156.377C163.679 188.65 206.983 191.628 224.932 191.345C232.447 191.226 238.616 198.779 238.955 208.323C239.296 217.911 233.648 226.117 226.192 226.867C193.695 230.134 164.338 249.417 156.116 255.248C146.253 262.243 136.134 267.124 125.439 270.017C118.2 323.271 69.1508 355.823 29.835 324.265C0.304871 300.567 -8.44595 251.618 8.81207 214.247C12.8547 205.486 12.9392 194.864 9.0386 186.533Z" fill="#FEA0A8"/>
<path d="M22.0492 307.241C23.081 294.022 30.6371 282.006 42.7797 274.278C58.625 264.192 59.3356 270.878 69.0919 232.927C76.8869 202.602 81.9047 187.183 97.4227 168.236C104.081 160.108 103.621 160.273 105.236 155.125C108.952 143.277 120.944 140.052 128.047 149.12C152.623 180.488 190.37 190.486 225.285 190.486C232.736 190.486 238.891 197.999 239.231 207.565C239.574 217.21 233.883 225.465 226.372 226.22C193.631 229.507 164.053 248.903 155.77 254.769C145.833 261.806 135.638 266.716 124.863 269.626C117.47 323.914 67.7203 355.601 28.5387 324.192C24.036 320.583 21.5209 314.014 22.0492 307.241Z" fill="#EA8692"/>
<path d="M164.544 143.464C168.441 119.309 165.137 95.744 196.292 73.878C241.713 42.0074 294.26 39.0211 344.286 40.555C363.076 41.1485 357.244 40.6007 375.223 26.2083C383.055 19.9395 393.376 25.075 395.891 36.4385C402.884 68.0227 384.387 99.3496 358.851 99.3496C302.791 99.3496 252.77 124.438 225.046 166.463C222.332 170.575 218.208 173.021 213.754 172.732C203.084 172.025 188.896 170.39 173.76 163.959C167.08 161.121 163.117 152.309 164.544 143.464Z" fill="#EA8692"/>
<path d="M8.81215 214.249C12.8524 205.488 12.9385 194.864 9.03868 186.534C-10.7841 144.264 3.45383 89.9673 37.558 70.6919C41.7076 31.128 68.1866 0.525879 100.131 0.525879C101.315 0.525879 102.494 0.720721 103.639 1.10444C129.916 9.928 173.293 19.346 206.394 19.1631C219.442 19.1283 225.248 40.0659 215.295 50.649C197.539 69.5308 182.44 71.5905 159.839 71.3649C135.226 71.1551 132.762 74.4336 123.712 85.3338C111.905 99.5533 105.845 104.523 83.1002 110.203C73.9444 112.49 66.0377 114.465 62.1549 120.342C57.4296 127.484 58.5584 141.088 60.338 151.243C63.1665 167.377 68.2587 185.472 65.843 205.518C62.0494 237.133 39.0653 262.09 14.2449 260.694C5.75169 260.208 -0.409576 250.096 1.27698 239.396C2.67726 230.503 5.21175 222.044 8.81215 214.249Z" fill="#FFB9C3"/>
<path d="M79.3369 99.3038C84.1777 94.4844 90.9154 94.9924 95.2962 100.108L95.304 100.098C126.565 136.537 140.447 116.105 139.936 116.906C143.624 111.112 150.124 109.781 155.032 113.825C159.53 117.532 163.359 120.499 168.203 123.602C172.776 108.765 170.523 98.7123 164.921 91.1174C160.263 84.8 160.342 74.6294 165.226 68.6003C170.188 62.4757 178.082 62.7003 182.828 69.0844C198.491 90.1582 197.097 115.567 191.642 134.294C223.67 143.34 276.166 132.84 308.71 152.202C314.77 139.518 322.579 116.426 322.782 81.435C322.834 72.4255 328.721 65.2223 335.816 65.6677C342.532 66.0892 347.668 73.5618 347.603 82.1776C347.285 124.128 337.741 152.643 329.62 169.384C364.318 206.368 381.254 269.865 383.969 280.777C398.023 316.698 397.323 454.028 398 508.213C369.425 434.604 370.142 439.67 361.645 402.06C360.548 397.204 359.511 392.618 358.856 390.362C348.95 356.343 337.722 317.786 313.23 298.224L309.657 295.371L308.176 290.32C294.114 242.355 266.538 220.115 226.223 224.243L225.352 224.293C184.25 224.791 138.97 210.52 109.622 173.293C103.022 164.927 102.814 163.954 77.1499 121.62C72.9436 114.684 73.9235 104.692 79.3369 99.3038Z" fill="#A07765"/>
<path d="M62.127 270.918C55.2718 270.918 49.7145 263.797 49.7145 255.012C49.7145 246.228 55.2718 239.107 62.127 239.107C68.9823 239.107 74.5396 246.228 74.5396 255.012C74.5396 263.797 68.9823 270.918 62.127 270.918Z" fill="#EA8692"/>
<path d="M223.49 318.634C216.634 318.634 211.077 311.513 211.077 302.729C211.077 293.945 216.634 286.823 223.49 286.823C230.345 286.823 235.902 293.945 235.902 302.729C235.902 311.513 230.345 318.634 223.49 318.634Z" fill="#EA8692"/>
<path d="M136.602 382.256C129.747 382.256 124.19 375.135 124.19 366.351C124.19 357.566 129.747 350.445 136.602 350.445C143.457 350.445 149.015 357.566 149.015 366.351C149.015 375.135 143.457 382.256 136.602 382.256Z" fill="#EA8692"/>
<path d="M49.7144 414.067C42.8592 414.067 37.3019 406.946 37.3019 398.162C37.3019 389.377 42.8592 382.256 49.7144 382.256C56.5697 382.256 62.127 389.377 62.127 398.162C62.127 406.946 56.5697 414.067 49.7144 414.067Z" fill="#EA8692"/>
<path d="M198.665 398.162C191.809 398.162 186.252 391.041 186.252 382.256C186.252 373.472 191.809 366.351 198.665 366.351C205.52 366.351 211.077 373.472 211.077 382.256C211.077 391.041 205.52 398.162 198.665 398.162Z" fill="#EA8692"/>
<path d="M49.7144 159.58C42.8592 159.58 37.3019 152.458 37.3019 143.674C37.3019 134.89 42.8592 127.769 49.7144 127.769C56.5697 127.769 62.127 134.89 62.127 143.674C62.127 152.458 56.5697 159.58 49.7144 159.58Z" fill="#EA8692"/>
<path d="M124.19 95.9577C117.334 95.9577 111.777 88.8366 111.777 80.0523C111.777 71.2679 117.334 64.1468 124.19 64.1468C131.045 64.1468 136.602 71.2679 136.602 80.0523C136.602 88.8366 131.045 95.9577 124.19 95.9577Z" fill="#EA8692"/>
</g>
<defs>
<clipPath id="clip0">
<rect width="398" height="510" fill="white" transform="matrix(-1 0 0 1 398 0)"/>
</clipPath>
</defs>
</svg>
