<svg width="162" height="162" viewBox="0 0 162 162" fill="none" xmlns="http://www.w3.org/2000/svg">
<g clip-path="url(#clip0)">
<path d="M162 30.7699C155.976 33.4125 149.556 35.1641 142.864 36.0146C149.749 31.9039 155.004 25.4441 157.474 17.658C151.055 21.4852 143.967 24.1886 136.414 25.6973C130.319 19.2071 121.632 15.1875 112.155 15.1875C93.7676 15.1875 78.9649 30.1118 78.9649 48.4076C78.9649 51.0401 79.1876 53.5714 79.7344 55.9811C52.1235 54.6345 27.6919 41.4011 11.2792 21.2423C8.41387 26.2136 6.73313 31.9039 6.73313 38.0295C6.73313 49.5315 12.6562 59.7274 21.4853 65.6302C16.1494 65.529 10.9148 63.9799 6.48 61.5397C6.48 61.641 6.48 61.7726 6.48 61.9042C6.48 78.0435 17.9921 91.449 33.0885 94.5371C30.3851 95.2762 27.4387 95.6306 24.381 95.6306C22.2547 95.6306 20.1082 95.5091 18.0934 95.0636C22.3965 108.216 34.6073 117.885 49.1265 118.199C37.827 127.038 23.4799 132.364 7.94813 132.364C5.2245 132.364 2.61225 132.243 0 131.909C14.7116 141.396 32.1469 146.812 50.949 146.812C112.063 146.812 145.476 96.1875 145.476 52.3057C145.476 50.8376 145.425 49.4201 145.354 48.0128C151.946 43.335 157.484 37.4929 162 30.7699Z" fill="white"/>
</g>
<defs>
<clipPath id="clip0">
<rect width="162" height="162" fill="white"/>
</clipPath>
</defs>
</svg>
